#!OML:ASF H:\Pregnant\Project 1\Capture day 1\Session 1\femalepreg.ASF
:FULLY-SPECIFIED
:DEGREES
170
root 3.52529 15.8632 31.3952 13.894 -85.7171 38.9374
lowerback -1.05847 4.31944 3.13086
upperback 1.62854 5.60649 1.46141
thorax 2.42013 2.81394 -0.0597506
lowerneck -13.835 8.15295 13.1476
upperneck 29.8031 4.18673 8.26977
head 12.5832 4.04072 1.53566
rclavicle 2.22639e-014 1.27222e-014
rhumerus -17.8794 61.2247 -81.0244
rradius 88.3437
rwrist -38.7688
rhand -4.71556 -5.65407
rfingers 7.12502
rthumb 21.0667 -34.5297
lclavicle 2.22639e-014 1.27222e-014
lhumerus -41.8899 2.63498 53.0194
lradius 40.152
lwrist 52.6614
lhand -2.12131 5.2358
lfingers 7.12502
lthumb 23.557 33.8131
rfemur -76.6592 12.037 0.633068
rtibia 29.1718
rfoot -2.57339 -21.3218
rtoes 7.97536
lfemur 0 0 0
ltibia 0
lfoot 0 0
ltoes 0
171
root 3.54104 15.8562 31.3913 15.0995 -85.5472 38.2524
lowerback -0.803992 4.39266 3.22218
upperback 1.82643 5.6975 1.56663
thorax 2.48253 2.85876 -0.00999935
lowerneck -13.8479 8.12016 13.1053
upperneck 29.8456 4.17527 8.17771
head 12.6007 4.02401 1.50743
rclavicle -6.67916e-014 7.95139e-015
rhumerus -18.3997 61.5802 -81.5994
rradius 88.2073
rwrist -39.9651
rhand -3.52147 -5.71785
rfingers 7.12502
rthumb 22.2134 -34.4614
lclavicle -6.67916e-014 7.95139e-015
lhumerus -41.918 1.93464 53.6001
lradius 40.1242
lwrist 52.9194
lhand -2.36419 5.11804
lfingers 7.12502
lthumb 23.324 33.7251
rfemur -77.2578 11.6866 0.63864
rtibia 29.2485
rfoot -2.49766 -21.2758
rtoes 7.91416
lfemur 0 0 0
ltibia 0
lfoot 0 0
ltoes 0
172
root 3.55616 15.8492 31.3876 16.2729 -85.3901 37.5921
lowerback -0.545587 4.4663 3.31923
upperback 2.02376 5.7888 1.67064
thorax 2.54298 2.90362 0.0347716
lowerneck -13.859 8.09439 13.0607
upperneck 29.881 4.17134 8.09799
head 12.615 4.01135 1.48503
rclavicle -7.15625e-014 -6.20208e-014
rhumerus -18.9121 61.8416 -82.1609
rradius 88.0861
rwrist -41.0804
rhand -2.56277 -5.70968
rfingers 7.12502
rthumb 23.1335 -34.3407
lclavicle -7.15625e-014 -6.20208e-014
lhumerus -41.9652 1.26938 54.1656
lradius 40.0933
lwrist 53.0428
lhand -2.50135 4.98074
lfingers 7.12502
lthumb 23.1925 33.6044
rfemur -77.846 11.353 0.64762
rtibia 29.3158
rfoot -2.42432 -21.2306
rtoes 7.89568
lfemur 0 0 0
ltibia 0
lfoot 0 0
ltoes 0
173
root 3.57158 15.8418 31.384 17.4598 -85.2427 36.9412
lowerback -0.311397 4.52999 3.4155
upperback 2.21328 5.86594 1.7749
thorax 2.6086 2.94132 0.0811706
lowerneck -13.8615 8.08199 13.0117
upperneck 29.9101 4.18758 8.02396
head 12.6249 4.00709 1.46797
rclavicle -1.43125e-014 -1.90833e-014
rhumerus -19.388 62.0442 -82.6973
rradius 87.9723
rwrist -42.0864
rhand -1.4202 -5.73173
rfingers 7.12502
rthumb 24.2294 -34.221
lclavicle -1.43125e-014 -1.90833e-014
lhumerus -42.0518 0.626818 54.7207
lradius 40.0737
lwrist 53.1004
lhand -2.56772 4.85231
lfingers 7.12502
lthumb 23.1288 33.484
rfemur -78.4595 11.0234 0.656169
rtibia 29.3728
rfoot -2.33849 -21.1845
rtoes 7.88459
lfemur 0 0 0
ltibia 0
lfoot 0 0
ltoes 0
174
root 3.58683 15.8341 31.3805 18.674 -85.1059 36.2758
lowerback -0.0983228 4.57762 3.51184
upperback 2.39887 5.92052 1.88413
thorax 2.68104 2.96766 0.133317
lowerneck -13.8488 8.08601 12.943
upperneck 29.934 4.23249 7.95864
head 12.6287 4.01361 1.46078
rclavicle 5.08889e-014 1.43125e-014
rhumerus -19.8338 62.2188 -83.1945
rradius 87.8829
rwrist -42.9795
rhand -0.0931775 -5.80578
rfingers 7.12502
rthumb 25.5011 -34.1193
lclavicle 5.08889e-014 1.43125e-014
lhumerus -42.1878 0.00199105 55.2764
lradius 40.0638
lwrist 53.1521
lhand -2.59081 4.74652
lfingers 7.12502
lthumb 23.1066 33.381
rfemur -79.0857 10.7024 0.666887
rtibia 29.4204
rfoot -2.25156 -21.1392
rtoes 7.88202
lfemur 0 0 0
ltibia 0
lfoot 0 0
ltoes 0
